<?xml version="1.0" encoding="utf-8"?>
<!-- Generator: Adobe Illustrator 25.2.0, SVG Export Plug-In . SVG Version: 6.00 Build 0)  -->
<svg version="1.1" id="Layer_1" xmlns="http://www.w3.org/2000/svg" xmlns:xlink="http://www.w3.org/1999/xlink" x="0px" y="0px"
	 viewBox="0 0 288 237.67" style="enable-background:new 0 0 288 237.67;" xml:space="preserve">
<style type="text/css">
	.st0{fill:#FCC73D;}
	.st1{fill:#070808;}
	.st2{fill:#F3F4F5;stroke:#231F20;stroke-width:0.25;stroke-miterlimit:10;}
	.st3{fill:#898791;}
	.st4{fill:none;stroke:#FFFFFF;stroke-width:8;stroke-miterlimit:10;}
	.st5{fill:none;}
	.st6{fill:#F1F1F2;}
	.st7{fill:#231F20;}
	.st8{fill:#FFFFFF;}
	.st9{fill:#F7DA03;}
	.st10{fill:#EEB310;}
	.st11{fill:#DEA710;}
</style>
<g>
	<g>
		<path class="st7" d="M39.59,156.2c0-0.47,0.38-0.89,0.89-0.89h19.09c0.52,0,0.89,0.42,0.89,0.89v3.85c0,0.47-0.38,0.89-0.89,0.89
			H45.69v7.69h11.59c0.47,0,0.89,0.42,0.89,0.89v3.89c0,0.52-0.42,0.89-0.89,0.89H45.69v8.21h13.89c0.52,0,0.89,0.42,0.89,0.89v3.85
			c0,0.47-0.38,0.89-0.89,0.89H40.48c-0.52,0-0.89-0.42-0.89-0.89V156.2z"/>
		<path class="st7" d="M71.86,156.2c0-0.47,0.38-0.89,0.89-0.89h4.32c0.47,0,0.89,0.42,0.89,0.89v26.32h11.96
			c0.52,0,0.89,0.42,0.89,0.89v3.85c0,0.47-0.38,0.89-0.89,0.89H72.75c-0.52,0-0.89-0.42-0.89-0.89V156.2z"/>
		<path class="st7" d="M100.23,156.2c0-0.47,0.38-0.89,0.89-0.89h19.09c0.52,0,0.89,0.42,0.89,0.89v3.85c0,0.47-0.38,0.89-0.89,0.89
			h-13.89v7.69h11.59c0.47,0,0.89,0.42,0.89,0.89v3.89c0,0.52-0.42,0.89-0.89,0.89h-11.59v8.21h13.89c0.52,0,0.89,0.42,0.89,0.89
			v3.85c0,0.47-0.38,0.89-0.89,0.89h-19.09c-0.52,0-0.89-0.42-0.89-0.89V156.2z"/>
		<path class="st7" d="M128.22,156.53c-0.28-0.61,0.09-1.22,0.8-1.22h4.78c0.42,0,0.7,0.28,0.8,0.52l9.01,20.17h0.33l9.01-20.17
			c0.09-0.23,0.38-0.52,0.8-0.52h4.79c0.7,0,1.08,0.61,0.8,1.22l-14.54,31.57c-0.14,0.28-0.38,0.52-0.8,0.52h-0.47
			c-0.42,0-0.66-0.23-0.8-0.52L128.22,156.53z"/>
		<path class="st7" d="M161.66,186.92l14.59-31.57c0.14-0.28,0.38-0.52,0.8-0.52h0.47c0.47,0,0.66,0.23,0.8,0.52l14.45,31.57
			c0.28,0.61-0.09,1.22-0.8,1.22h-4.08c-0.7,0-1.03-0.28-1.36-0.94l-2.3-5.07H170.2l-2.3,5.07c-0.19,0.47-0.61,0.94-1.36,0.94h-4.08
			C161.75,188.14,161.38,187.53,161.66,186.92z M181.92,176.93l-4.69-10.32h-0.14l-4.6,10.32H181.92z"/>
		<path class="st7" d="M204.39,160.94h-7.18c-0.52,0-0.89-0.42-0.89-0.89v-3.85c0-0.47,0.38-0.89,0.89-0.89h20.5
			c0.52,0,0.89,0.42,0.89,0.89v3.85c0,0.47-0.38,0.89-0.89,0.89h-7.18v26.32c0,0.47-0.42,0.89-0.89,0.89h-4.36
			c-0.47,0-0.89-0.42-0.89-0.89V160.94z"/>
		<path class="st7" d="M228.16,156.2c0-0.47,0.38-0.89,0.89-0.89h19.09c0.52,0,0.89,0.42,0.89,0.89v3.85c0,0.47-0.38,0.89-0.89,0.89
			h-13.89v7.69h11.59c0.47,0,0.89,0.42,0.89,0.89v3.89c0,0.52-0.42,0.89-0.89,0.89h-11.59v8.21h13.89c0.52,0,0.89,0.42,0.89,0.89
			v3.85c0,0.47-0.38,0.89-0.89,0.89h-19.09c-0.52,0-0.89-0.42-0.89-0.89V156.2z"/>
		<path class="st7" d="M5.09,213.44c0-0.22,0.17-0.41,0.41-0.41h5.9c2.6,0,4.73,2.06,4.73,4.65c0,2-1.32,3.65-3.21,4.41l2.97,5.51
			c0.15,0.28,0,0.63-0.37,0.63h-1.69c-0.17,0-0.3-0.11-0.35-0.2l-2.89-5.75H7.33v5.54c0,0.22-0.2,0.41-0.41,0.41H5.5
			c-0.24,0-0.41-0.2-0.41-0.41V213.44z M11.23,220.41c1.41,0,2.65-1.19,2.65-2.69c0-1.41-1.24-2.58-2.65-2.58H7.37v5.27H11.23z"/>
		<path class="st7" d="M26.04,213.44c0-0.22,0.17-0.41,0.41-0.41h8.68c0.24,0,0.41,0.2,0.41,0.41v1.22c0,0.22-0.17,0.41-0.41,0.41
			h-6.86v4.43h5.8c0.22,0,0.41,0.2,0.41,0.41v1.22c0,0.24-0.2,0.41-0.41,0.41h-5.8v4.67h6.86c0.24,0,0.41,0.2,0.41,0.41v1.19
			c0,0.22-0.17,0.41-0.41,0.41h-8.68c-0.24,0-0.41-0.2-0.41-0.41V213.44z"/>
		<path class="st7" d="M52,212.81c2.19,0,3.78,0.74,5.25,2.02c0.2,0.17,0.2,0.43,0.02,0.61l-0.96,0.98c-0.15,0.2-0.35,0.2-0.54,0
			c-1.02-0.89-2.41-1.45-3.76-1.45c-3.1,0-5.45,2.61-5.45,5.64c0,3.04,2.37,5.62,5.47,5.62c1.59,0,2.69-0.63,3.73-1.43
			c0.2-0.15,0.39-0.13,0.52-0.02l1,0.98c0.17,0.15,0.13,0.44-0.02,0.59c-1.48,1.43-3.34,2.11-5.28,2.11c-4.34,0-7.84-3.45-7.84-7.79
			C44.16,216.3,47.66,212.81,52,212.81z"/>
		<path class="st7" d="M73.52,212.81c4.34,0,7.81,3.49,7.81,7.84c0,4.34-3.47,7.79-7.81,7.79c-4.34,0-7.79-3.45-7.79-7.79
			C65.72,216.3,69.17,212.81,73.52,212.81z M73.52,226.27c3.1,0,5.64-2.52,5.64-5.62c0-3.08-2.54-5.67-5.64-5.67
			c-3.08,0-5.62,2.58-5.62,5.67C67.89,223.75,70.43,226.27,73.52,226.27z"/>
		<path class="st7" d="M88.82,213.59c-0.13-0.28,0.04-0.56,0.37-0.56h1.54c0.17,0,0.32,0.13,0.37,0.24l4.78,10.74H96l4.77-10.74
			c0.04-0.11,0.17-0.24,0.37-0.24h1.54c0.33,0,0.5,0.28,0.37,0.56l-6.66,14.61c-0.07,0.13-0.2,0.24-0.37,0.24h-0.22
			c-0.15,0-0.3-0.11-0.37-0.24L88.82,213.59z"/>
		<path class="st7" d="M111.76,213.44c0-0.22,0.17-0.41,0.41-0.41h8.68c0.24,0,0.41,0.2,0.41,0.41v1.22c0,0.22-0.17,0.41-0.41,0.41
			H114v4.43h5.8c0.22,0,0.41,0.2,0.41,0.41v1.22c0,0.24-0.2,0.41-0.41,0.41H114v4.67h6.86c0.24,0,0.41,0.2,0.41,0.41v1.19
			c0,0.22-0.17,0.41-0.41,0.41h-8.68c-0.24,0-0.41-0.2-0.41-0.41V213.44z"/>
		<path class="st7" d="M131.06,213.44c0-0.22,0.17-0.41,0.41-0.41h5.9c2.61,0,4.73,2.06,4.73,4.65c0,2-1.32,3.65-3.21,4.41
			l2.97,5.51c0.15,0.28,0,0.63-0.37,0.63h-1.69c-0.17,0-0.3-0.11-0.35-0.2l-2.89-5.75h-3.28v5.54c0,0.22-0.2,0.41-0.41,0.41h-1.41
			c-0.24,0-0.41-0.2-0.41-0.41V213.44z M137.21,220.41c1.41,0,2.65-1.19,2.65-2.69c0-1.41-1.24-2.58-2.65-2.58h-3.86v5.27H137.21z"
			/>
		<path class="st7" d="M154.98,220.91l-5.08-7.25c-0.17-0.28,0-0.63,0.35-0.63h1.61c0.17,0,0.28,0.11,0.35,0.2l3.93,5.54l3.93-5.54
			c0.07-0.09,0.2-0.2,0.35-0.2h1.63c0.35,0,0.52,0.35,0.35,0.63l-5.14,7.23v6.93c0,0.22-0.2,0.41-0.41,0.41h-1.43
			c-0.24,0-0.41-0.2-0.41-0.41V220.91z"/>
		<path class="st7" d="M182.27,213.44c0-0.22,0.2-0.41,0.41-0.41h1.43c0.24,0,0.41,0.2,0.41,0.41v6.06h7.94v-6.06
			c0-0.22,0.17-0.41,0.41-0.41h1.43c0.22,0,0.41,0.2,0.41,0.41v14.37c0,0.22-0.2,0.41-0.41,0.41h-1.43c-0.24,0-0.41-0.2-0.41-0.41
			v-6.27h-7.94v6.27c0,0.22-0.17,0.41-0.41,0.41h-1.43c-0.22,0-0.41-0.2-0.41-0.41V213.44z"/>
		<path class="st7" d="M212.14,212.81c4.34,0,7.81,3.49,7.81,7.84c0,4.34-3.47,7.79-7.81,7.79c-4.34,0-7.79-3.45-7.79-7.79
			C204.35,216.3,207.8,212.81,212.14,212.81z M212.14,226.27c3.1,0,5.64-2.52,5.64-5.62c0-3.08-2.54-5.67-5.64-5.67
			c-3.08,0-5.62,2.58-5.62,5.67C206.52,223.75,209.06,226.27,212.14,226.27z"/>
		<path class="st7" d="M231.22,213.13c0.04-0.17,0.22-0.33,0.39-0.33h0.35c0.13,0,0.32,0.11,0.37,0.24l4.54,11.09h0.09l4.52-11.09
			c0.04-0.13,0.22-0.24,0.37-0.24h0.35c0.17,0,0.35,0.15,0.39,0.33l2.67,14.59c0.07,0.3-0.09,0.5-0.39,0.5h-1.41
			c-0.2,0-0.37-0.15-0.41-0.3l-1.61-9.7c-0.02,0-0.07,0-0.07,0l-3.91,9.99c-0.04,0.13-0.17,0.24-0.37,0.24h-0.39
			c-0.17,0-0.33-0.11-0.37-0.24l-3.93-9.99c-0.02,0-0.07,0-0.09,0l-1.56,9.7c-0.02,0.15-0.22,0.3-0.39,0.3h-1.41
			c-0.3,0-0.45-0.2-0.41-0.5L231.22,213.13z"/>
		<path class="st7" d="M254.95,213.44c0-0.22,0.17-0.41,0.41-0.41h8.68c0.24,0,0.41,0.2,0.41,0.41v1.22c0,0.22-0.17,0.41-0.41,0.41
			h-6.86v4.43h5.8c0.22,0,0.41,0.2,0.41,0.41v1.22c0,0.24-0.2,0.41-0.41,0.41h-5.8v4.67h6.86c0.24,0,0.41,0.2,0.41,0.41v1.19
			c0,0.22-0.17,0.41-0.41,0.41h-8.68c-0.24,0-0.41-0.2-0.41-0.41V213.44z"/>
		<path class="st7" d="M273.27,226.03c0.2-0.28,0.37-0.61,0.56-0.89c0.2-0.28,0.5-0.37,0.74-0.17c0.13,0.11,1.8,1.5,3.47,1.5
			c1.5,0,2.45-0.91,2.45-2.02c0-1.3-1.13-2.13-3.28-3.02c-2.21-0.93-3.95-2.08-3.95-4.6c0-1.69,1.3-4.02,4.76-4.02
			c2.17,0,3.8,1.13,4.02,1.28c0.17,0.11,0.35,0.41,0.13,0.74c-0.17,0.26-0.37,0.56-0.54,0.83c-0.17,0.28-0.46,0.41-0.76,0.22
			c-0.15-0.09-1.67-1.08-2.93-1.08c-1.82,0-2.45,1.15-2.45,1.95c0,1.24,0.96,2,2.76,2.73c2.52,1.02,4.67,2.21,4.67,4.86
			c0,2.26-2.02,4.1-4.84,4.1c-2.65,0-4.32-1.39-4.67-1.72C273.21,226.55,273.05,226.4,273.27,226.03z"/>
	</g>
	<g>
		<g>
			<polygon class="st0" points="96.91,114.03 87.65,106.89 134.68,45.85 150.96,59.64 191.21,9.17 200.35,16.46 152.59,76.34 
				136.47,62.68 			"/>
		</g>
		<g>
			<g>
				<path class="st0" d="M146.08,116.58c-29.17,0-52.9-23.73-52.9-52.9s23.73-52.9,52.9-52.9c12.74,0,25.05,4.6,34.66,12.94
					l-7.15,8.88c-7.49-6.5-17.58-10.13-27.51-10.13c-22.72,0-41.21,18.49-41.21,41.21c0,22.72,18.49,41.21,41.21,41.21
					c17.12,0,32.2-10.3,38.42-26.25l10.89,4.25C187.4,103.36,168.05,116.58,146.08,116.58z"/>
			</g>
		</g>
	</g>
</g>
</svg>
