<?xml version="1.0" encoding="utf-8"?>
<!-- Generator: Adobe Illustrator 25.2.0, SVG Export Plug-In . SVG Version: 6.00 Build 0)  -->
<svg version="1.1" id="Layer_1" xmlns="http://www.w3.org/2000/svg" xmlns:xlink="http://www.w3.org/1999/xlink" x="0px" y="0px"
	 viewBox="0 0 368.43 120.23" style="enable-background:new 0 0 368.43 120.23;" xml:space="preserve">
<style type="text/css">
	.st0{fill:#FCC73D;}
	.st1{fill:#070808;}
	.st2{fill:#F3F4F5;stroke:#231F20;stroke-width:0.25;stroke-miterlimit:10;}
	.st3{fill:#898791;}
	.st4{fill:none;stroke:#FFFFFF;stroke-width:8;stroke-miterlimit:10;}
	.st5{fill:none;}
	.st6{fill:#F1F1F2;}
	.st7{fill:#231F20;}
	.st8{fill:#FFFFFF;}
	.st9{fill:#F7DA03;}
	.st10{fill:#EEB310;}
	.st11{fill:#DEA710;}
</style>
<g>
	<g>
		<g>
			<polygon class="st0" points="13.22,111.17 3.98,104.06 50.91,43.15 67.15,56.91 107.31,6.55 116.43,13.82 68.77,73.57 
				52.69,59.94 			"/>
		</g>
		<g>
			<g>
				<path class="st0" d="M62.28,113.72c-29.1,0-52.78-23.68-52.78-52.78S33.17,8.16,62.28,8.16c12.71,0,25,4.59,34.58,12.91
					l-7.14,8.86c-7.47-6.48-17.54-10.11-27.45-10.11c-22.67,0-41.12,18.45-41.12,41.12c0,22.67,18.45,41.12,41.12,41.12
					c17.08,0,32.13-10.28,38.33-26.2l10.87,4.24C103.51,100.53,84.2,113.72,62.28,113.72z"/>
			</g>
		</g>
	</g>
	<g>
		<g>
			<path class="st8" d="M151.11,28.86c0-0.47,0.37-0.89,0.89-0.89h19.05c0.52,0,0.89,0.42,0.89,0.89v3.84
				c0,0.47-0.37,0.89-0.89,0.89h-13.85v7.68h11.56c0.47,0,0.89,0.42,0.89,0.89v3.89c0,0.51-0.42,0.89-0.89,0.89h-11.56v8.19h13.85
				c0.52,0,0.89,0.42,0.89,0.89v3.84c0,0.47-0.37,0.89-0.89,0.89H152c-0.51,0-0.89-0.42-0.89-0.89V28.86z"/>
			<path class="st8" d="M183.3,28.86c0-0.47,0.38-0.89,0.89-0.89h4.31c0.47,0,0.89,0.42,0.89,0.89v26.26h11.93
				c0.52,0,0.89,0.42,0.89,0.89v3.84c0,0.47-0.37,0.89-0.89,0.89h-17.13c-0.51,0-0.89-0.42-0.89-0.89V28.86z"/>
			<path class="st8" d="M211.61,28.86c0-0.47,0.37-0.89,0.89-0.89h19.05c0.51,0,0.89,0.42,0.89,0.89v3.84
				c0,0.47-0.37,0.89-0.89,0.89H217.7v7.68h11.56c0.47,0,0.89,0.42,0.89,0.89v3.89c0,0.51-0.42,0.89-0.89,0.89H217.7v8.19h13.85
				c0.51,0,0.89,0.42,0.89,0.89v3.84c0,0.47-0.37,0.89-0.89,0.89H212.5c-0.51,0-0.89-0.42-0.89-0.89V28.86z"/>
			<path class="st8" d="M239.55,29.19c-0.28-0.61,0.09-1.22,0.8-1.22h4.77c0.42,0,0.7,0.28,0.8,0.51l8.99,20.13h0.33l8.99-20.13
				c0.09-0.23,0.38-0.51,0.8-0.51h4.78c0.7,0,1.08,0.61,0.8,1.22l-14.51,31.5c-0.14,0.28-0.37,0.52-0.8,0.52h-0.47
				c-0.42,0-0.66-0.23-0.8-0.52L239.55,29.19z"/>
			<path class="st8" d="M272.91,59.52l14.56-31.5c0.14-0.28,0.37-0.52,0.8-0.52h0.47c0.47,0,0.66,0.23,0.8,0.52l14.42,31.5
				c0.28,0.61-0.09,1.22-0.8,1.22h-4.07c-0.7,0-1.03-0.28-1.36-0.94l-2.29-5.06h-13.99l-2.29,5.06c-0.19,0.47-0.61,0.94-1.36,0.94
				h-4.07C273,60.73,272.63,60.13,272.91,59.52z M293.13,49.55l-4.68-10.3h-0.14l-4.59,10.3H293.13z"/>
			<path class="st8" d="M315.54,33.59h-7.16c-0.52,0-0.89-0.42-0.89-0.89v-3.84c0-0.47,0.37-0.89,0.89-0.89h20.45
				c0.51,0,0.89,0.42,0.89,0.89v3.84c0,0.47-0.38,0.89-0.89,0.89h-7.16v26.26c0,0.47-0.42,0.89-0.89,0.89h-4.35
				c-0.47,0-0.89-0.42-0.89-0.89V33.59z"/>
			<path class="st8" d="M339.26,28.86c0-0.47,0.37-0.89,0.89-0.89h19.05c0.51,0,0.89,0.42,0.89,0.89v3.84
				c0,0.47-0.37,0.89-0.89,0.89h-13.85v7.68h11.56c0.47,0,0.89,0.42,0.89,0.89v3.89c0,0.51-0.42,0.89-0.89,0.89h-11.56v8.19h13.85
				c0.51,0,0.89,0.42,0.89,0.89v3.84c0,0.47-0.37,0.89-0.89,0.89h-19.05c-0.51,0-0.89-0.42-0.89-0.89V28.86z"/>
		</g>
		<g>
			<path class="st8" d="M151.05,81.32c0-0.17,0.13-0.32,0.32-0.32h4.51c1.99,0,3.61,1.58,3.61,3.55c0,1.52-1.01,2.78-2.45,3.36
				l2.27,4.21c0.12,0.22,0,0.48-0.28,0.48h-1.29c-0.13,0-0.23-0.08-0.27-0.15l-2.2-4.39h-2.5v4.23c0,0.17-0.15,0.31-0.31,0.31h-1.08
				c-0.18,0-0.32-0.15-0.32-0.31V81.32z M155.74,86.64c1.08,0,2.02-0.91,2.02-2.06c0-1.08-0.95-1.97-2.02-1.97h-2.95v4.03H155.74z"
				/>
			<path class="st8" d="M167.05,81.32c0-0.17,0.13-0.32,0.32-0.32h6.63c0.18,0,0.31,0.15,0.31,0.32v0.93c0,0.17-0.13,0.31-0.31,0.31
				h-5.24v3.38h4.43c0.16,0,0.31,0.15,0.31,0.31v0.93c0,0.18-0.15,0.32-0.31,0.32h-4.43v3.56h5.24c0.18,0,0.31,0.15,0.31,0.31v0.91
				c0,0.17-0.13,0.31-0.31,0.31h-6.63c-0.18,0-0.32-0.15-0.32-0.31V81.32z"/>
			<path class="st8" d="M186.88,80.84c1.67,0,2.88,0.56,4.01,1.54c0.15,0.13,0.15,0.33,0.02,0.46l-0.73,0.75
				c-0.12,0.15-0.27,0.15-0.41,0c-0.78-0.68-1.84-1.11-2.87-1.11c-2.37,0-4.16,1.99-4.16,4.31c0,2.32,1.81,4.29,4.18,4.29
				c1.21,0,2.06-0.48,2.85-1.09c0.15-0.12,0.3-0.1,0.4-0.02l0.76,0.75c0.13,0.12,0.1,0.33-0.02,0.45c-1.13,1.09-2.55,1.61-4.03,1.61
				c-3.31,0-5.98-2.64-5.98-5.95C180.89,83.51,183.56,80.84,186.88,80.84z"/>
			<path class="st8" d="M203.31,80.84c3.31,0,5.97,2.67,5.97,5.98c0,3.32-2.65,5.95-5.97,5.95c-3.32,0-5.95-2.64-5.95-5.95
				C197.36,83.51,199.99,80.84,203.31,80.84z M203.31,91.12c2.37,0,4.31-1.92,4.31-4.29c0-2.35-1.94-4.33-4.31-4.33
				c-2.35,0-4.29,1.97-4.29,4.33C199.01,89.19,200.95,91.12,203.31,91.12z"/>
			<path class="st8" d="M214.99,81.44c-0.1-0.22,0.03-0.43,0.28-0.43h1.18c0.13,0,0.25,0.1,0.28,0.18l3.65,8.2h0.1l3.65-8.2
				c0.03-0.08,0.13-0.18,0.28-0.18h1.18c0.25,0,0.38,0.22,0.28,0.43l-5.09,11.16c-0.05,0.1-0.15,0.18-0.28,0.18h-0.17
				c-0.12,0-0.23-0.08-0.28-0.18L214.99,81.44z"/>
			<path class="st8" d="M232.52,81.32c0-0.17,0.13-0.32,0.32-0.32h6.63c0.18,0,0.31,0.15,0.31,0.32v0.93c0,0.17-0.13,0.31-0.31,0.31
				h-5.24v3.38h4.43c0.16,0,0.31,0.15,0.31,0.31v0.93c0,0.18-0.15,0.32-0.31,0.32h-4.43v3.56h5.24c0.18,0,0.31,0.15,0.31,0.31v0.91
				c0,0.17-0.13,0.31-0.31,0.31h-6.63c-0.18,0-0.32-0.15-0.32-0.31V81.32z"/>
			<path class="st8" d="M247.25,81.32c0-0.17,0.13-0.32,0.32-0.32h4.51c1.99,0,3.61,1.58,3.61,3.55c0,1.52-1.01,2.78-2.45,3.36
				l2.27,4.21c0.12,0.22,0,0.48-0.28,0.48h-1.29c-0.13,0-0.23-0.08-0.27-0.15l-2.2-4.39h-2.5v4.23c0,0.17-0.15,0.31-0.32,0.31h-1.08
				c-0.18,0-0.32-0.15-0.32-0.31V81.32z M251.95,86.64c1.08,0,2.02-0.91,2.02-2.06c0-1.08-0.95-1.97-2.02-1.97H249v4.03H251.95z"/>
			<path class="st8" d="M265.52,87.02l-3.88-5.54c-0.13-0.22,0-0.48,0.27-0.48h1.23c0.13,0,0.21,0.08,0.27,0.15l3,4.23l3-4.23
				c0.05-0.07,0.15-0.15,0.27-0.15h1.24c0.27,0,0.4,0.27,0.27,0.48l-3.93,5.52v5.29c0,0.17-0.15,0.31-0.31,0.31h-1.1
				c-0.18,0-0.31-0.15-0.31-0.31V87.02z"/>
			<path class="st8" d="M286.36,81.32c0-0.17,0.15-0.32,0.32-0.32h1.09c0.18,0,0.32,0.15,0.32,0.32v4.62h6.07v-4.62
				c0-0.17,0.13-0.32,0.32-0.32h1.09c0.17,0,0.32,0.15,0.32,0.32v10.97c0,0.17-0.15,0.31-0.32,0.31h-1.09
				c-0.18,0-0.32-0.15-0.32-0.31V87.5h-6.07v4.79c0,0.17-0.13,0.31-0.32,0.31h-1.09c-0.17,0-0.32-0.15-0.32-0.31V81.32z"/>
			<path class="st8" d="M309.17,80.84c3.31,0,5.97,2.67,5.97,5.98c0,3.32-2.65,5.95-5.97,5.95c-3.32,0-5.95-2.64-5.95-5.95
				C303.22,83.51,305.86,80.84,309.17,80.84z M309.17,91.12c2.37,0,4.31-1.92,4.31-4.29c0-2.35-1.94-4.33-4.31-4.33
				c-2.35,0-4.29,1.97-4.29,4.33C304.88,89.19,306.82,91.12,309.17,91.12z"/>
			<path class="st8" d="M323.75,81.09c0.03-0.13,0.17-0.25,0.3-0.25h0.27c0.1,0,0.25,0.08,0.28,0.18l3.46,8.47h0.07l3.45-8.47
				c0.03-0.1,0.17-0.18,0.28-0.18h0.27c0.13,0,0.27,0.12,0.3,0.25l2.04,11.14c0.05,0.23-0.07,0.38-0.3,0.38h-1.08
				c-0.15,0-0.28-0.12-0.32-0.23l-1.23-7.41c-0.02,0-0.05,0-0.05,0l-2.98,7.63c-0.03,0.1-0.13,0.18-0.28,0.18h-0.3
				c-0.13,0-0.25-0.08-0.28-0.18l-3-7.63c-0.02,0-0.05,0-0.07,0l-1.19,7.41c-0.02,0.12-0.17,0.23-0.3,0.23h-1.08
				c-0.23,0-0.35-0.15-0.32-0.38L323.75,81.09z"/>
			<path class="st8" d="M341.87,81.32c0-0.17,0.13-0.32,0.32-0.32h6.63c0.18,0,0.31,0.15,0.31,0.32v0.93c0,0.17-0.13,0.31-0.31,0.31
				h-5.24v3.38H348c0.16,0,0.31,0.15,0.31,0.31v0.93c0,0.18-0.15,0.32-0.31,0.32h-4.43v3.56h5.24c0.18,0,0.31,0.15,0.31,0.31v0.91
				c0,0.17-0.13,0.31-0.31,0.31h-6.63c-0.18,0-0.32-0.15-0.32-0.31V81.32z"/>
			<path class="st8" d="M355.86,90.93c0.15-0.22,0.28-0.46,0.43-0.68c0.15-0.22,0.38-0.28,0.56-0.13c0.1,0.08,1.38,1.14,2.65,1.14
				c1.14,0,1.87-0.7,1.87-1.54c0-0.99-0.86-1.62-2.5-2.3c-1.69-0.71-3.02-1.59-3.02-3.51c0-1.29,0.99-3.07,3.63-3.07
				c1.66,0,2.9,0.86,3.07,0.98c0.13,0.08,0.27,0.31,0.1,0.56c-0.13,0.2-0.28,0.43-0.41,0.63c-0.13,0.22-0.35,0.31-0.58,0.17
				c-0.12-0.07-1.28-0.83-2.24-0.83c-1.39,0-1.87,0.88-1.87,1.49c0,0.94,0.73,1.52,2.11,2.09c1.92,0.78,3.56,1.69,3.56,3.71
				c0,1.72-1.54,3.13-3.7,3.13c-2.02,0-3.3-1.06-3.56-1.31C355.81,91.33,355.69,91.22,355.86,90.93z"/>
		</g>
	</g>
</g>
</svg>
